<svg width="541" height="267" viewBox="0 0 541 267" fill="none" xmlns="http://www.w3.org/2000/svg">
<path d="M155.593 249.542V246.519L166.509 246.501V256.064C164.833 257.4 163.105 258.408 161.323 259.087C159.542 259.755 157.714 260.089 155.839 260.089C153.308 260.089 151.005 259.55 148.931 258.472C146.868 257.382 145.31 255.812 144.255 253.761C143.2 251.71 142.673 249.419 142.673 246.888C142.673 244.38 143.194 242.042 144.237 239.874C145.292 237.695 146.804 236.078 148.773 235.023C150.741 233.968 153.009 233.441 155.575 233.441C157.439 233.441 159.12 233.746 160.62 234.355C162.132 234.953 163.316 235.79 164.171 236.869C165.027 237.947 165.677 239.353 166.122 241.087L163.046 241.931C162.659 240.619 162.179 239.587 161.605 238.837C161.03 238.087 160.21 237.49 159.144 237.044C158.077 236.587 156.894 236.359 155.593 236.359C154.034 236.359 152.687 236.599 151.55 237.08C150.413 237.548 149.493 238.169 148.79 238.943C148.099 239.716 147.56 240.566 147.173 241.492C146.517 243.085 146.189 244.814 146.189 246.677C146.189 248.974 146.581 250.896 147.366 252.443C148.163 253.99 149.318 255.138 150.829 255.888C152.341 256.638 153.946 257.013 155.646 257.013C157.122 257.013 158.564 256.732 159.97 256.169C161.376 255.595 162.443 254.986 163.169 254.341V249.542H155.593Z" fill="black"/>
<path d="M199.914 259.65V240.982H202.762V243.812C203.489 242.488 204.157 241.615 204.766 241.193C205.387 240.771 206.067 240.56 206.805 240.56C207.871 240.56 208.955 240.9 210.057 241.58L208.967 244.515C208.194 244.058 207.42 243.83 206.647 243.83C205.955 243.83 205.334 244.04 204.784 244.462C204.233 244.872 203.84 245.447 203.606 246.185C203.254 247.31 203.078 248.54 203.078 249.876V259.65H199.914Z" fill="black"/>
<path d="M239.56 250.316C239.56 246.859 240.521 244.298 242.443 242.634C244.048 241.251 246.005 240.56 248.314 240.56C250.88 240.56 252.978 241.404 254.607 243.091C256.236 244.767 257.05 247.087 257.05 250.052C257.05 252.455 256.687 254.347 255.96 255.73C255.246 257.101 254.197 258.167 252.814 258.929C251.443 259.691 249.943 260.072 248.314 260.072C245.701 260.072 243.585 259.234 241.968 257.558C240.363 255.882 239.56 253.468 239.56 250.316ZM242.812 250.316C242.812 252.706 243.334 254.499 244.376 255.695C245.419 256.878 246.732 257.47 248.314 257.47C249.884 257.47 251.191 256.872 252.234 255.677C253.277 254.482 253.798 252.66 253.798 250.21C253.798 247.902 253.271 246.156 252.216 244.972C251.173 243.777 249.873 243.179 248.314 243.179C246.732 243.179 245.419 243.771 244.376 244.955C243.334 246.138 242.812 247.925 242.812 250.316Z" fill="black"/>
<path d="M301.811 259.65V256.908C300.358 259.017 298.384 260.072 295.887 260.072C294.786 260.072 293.755 259.861 292.794 259.439C291.844 259.017 291.135 258.49 290.667 257.857C290.21 257.212 289.887 256.427 289.7 255.501C289.571 254.88 289.507 253.896 289.507 252.548V240.982H292.671V251.335C292.671 252.988 292.735 254.101 292.864 254.675C293.063 255.507 293.485 256.164 294.13 256.644C294.774 257.113 295.571 257.347 296.52 257.347C297.469 257.347 298.36 257.107 299.192 256.626C300.024 256.134 300.61 255.472 300.95 254.64C301.301 253.796 301.477 252.578 301.477 250.984V240.982H304.641V259.65H301.811Z" fill="black"/>
<path d="M338.416 266.804V240.982H341.299V243.408C341.978 242.458 342.746 241.749 343.602 241.281C344.457 240.8 345.494 240.56 346.713 240.56C348.307 240.56 349.713 240.97 350.932 241.79C352.15 242.611 353.07 243.771 353.691 245.271C354.312 246.759 354.623 248.394 354.623 250.175C354.623 252.085 354.277 253.808 353.586 255.343C352.906 256.867 351.91 258.039 350.598 258.859C349.297 259.667 347.926 260.072 346.484 260.072C345.43 260.072 344.48 259.849 343.637 259.404C342.805 258.958 342.119 258.396 341.58 257.716V266.804H338.416ZM341.281 250.421C341.281 252.824 341.768 254.599 342.74 255.747C343.713 256.896 344.891 257.47 346.273 257.47C347.68 257.47 348.881 256.878 349.877 255.695C350.885 254.499 351.389 252.654 351.389 250.158C351.389 247.779 350.896 245.997 349.912 244.814C348.939 243.63 347.773 243.039 346.414 243.039C345.066 243.039 343.871 243.671 342.828 244.937C341.797 246.191 341.281 248.019 341.281 250.421Z" fill="black"/>
<path d="M29.5707 6.73154C39.4073 2.64554 48.8657 0.602539 57.9457 0.602539C65.5123 0.602539 73.306 3.40221 81.3267 9.00154C85.7153 12.0282 90.6337 17.9302 96.0817 26.7075C99.7137 32.7609 104.329 43.7325 109.929 59.6225L137.623 138.165C143.979 155.719 150.41 169.642 156.918 179.933C163.576 190.375 169.63 198.168 175.078 203.314C180.526 208.61 186.201 212.318 192.103 214.437C198.005 216.555 202.847 217.615 206.631 217.615C210.565 217.615 214.046 217.312 217.073 216.707L217.3 218.977C210.036 221.398 202.923 222.609 195.962 222.609C189 222.609 182.039 220.793 175.078 217.161C168.116 213.68 161.609 208.762 155.556 202.406C142.541 189.24 131.494 169.188 122.414 142.251L113.561 116.373H51.3626L35.6996 156.779C34.943 158.595 34.5646 160.411 34.5646 162.227C34.5646 164.043 35.3213 166.01 36.8347 168.129C38.4993 170.096 40.9963 171.08 44.3257 171.08H46.1416V173.35H0.514648V171.08H2.55765C6.18965 171.08 9.74598 170.02 13.2266 167.902C16.7073 165.632 19.5826 162.302 21.8526 157.914L78.1487 23.0755C69.9767 11.4229 59.8373 5.59654 47.7307 5.59654C42.2826 5.59654 36.4563 6.73154 30.2516 9.00154L29.5707 6.73154ZM53.8596 109.563H111.291L93.3577 56.6715C89.877 46.5322 86.699 38.5872 83.8237 32.8365L53.8596 109.563Z" fill="black"/>
<path d="M191.175 6.73154C201.012 2.64554 210.47 0.602539 219.55 0.602539C227.117 0.602539 234.91 3.40221 242.931 9.00154C247.32 12.0282 252.238 17.9302 257.686 26.7075C261.318 32.7609 265.934 43.7325 271.533 59.6225L299.227 138.165C305.583 155.719 312.015 169.642 318.522 179.933C325.181 190.375 331.234 198.168 336.682 203.314C342.13 208.61 347.805 212.318 353.707 214.437C359.609 216.555 364.452 217.615 368.235 217.615C372.17 217.615 375.65 217.312 378.677 216.707L378.904 218.977C371.64 221.398 364.527 222.609 357.566 222.609C350.605 222.609 343.643 220.793 336.682 217.161C329.721 213.68 323.213 208.762 317.16 202.406C304.145 189.24 293.098 169.188 284.018 142.251L275.165 116.373H212.967L197.304 156.779C196.547 158.595 196.169 160.411 196.169 162.227C196.169 164.043 196.926 166.01 198.439 168.129C200.104 170.096 202.601 171.08 205.93 171.08H207.746V173.35H162.119V171.08H164.162C167.794 171.08 171.35 170.02 174.831 167.902C178.312 165.632 181.187 162.302 183.457 157.914L239.753 23.0755C231.581 11.4229 221.442 5.59654 209.335 5.59654C203.887 5.59654 198.061 6.73154 191.856 9.00154L191.175 6.73154ZM215.464 109.563H272.895L254.962 56.6715C251.481 46.5322 248.303 38.5872 245.428 32.8365L215.464 109.563Z" fill="black"/>
<path d="M352.78 6.73154C362.616 2.64554 372.075 0.602539 381.155 0.602539C388.721 0.602539 396.515 3.40221 404.536 9.00154C408.924 12.0282 413.843 17.9302 419.291 26.7075C422.923 32.7609 427.538 43.7325 433.138 59.6225L460.832 138.165C467.188 155.719 473.619 169.642 480.127 179.933C486.785 190.375 492.839 198.168 498.287 203.314C503.735 208.61 509.41 212.318 515.312 214.437C521.214 216.555 526.056 217.615 529.84 217.615C533.774 217.615 537.255 217.312 540.282 216.707L540.509 218.977C533.245 221.398 526.132 222.609 519.171 222.609C512.209 222.609 505.248 220.793 498.287 217.161C491.325 213.68 484.818 208.762 478.765 202.406C465.75 189.24 454.703 169.188 445.623 142.251L436.77 116.373H374.572L358.909 156.779C358.152 158.595 357.774 160.411 357.774 162.227C357.774 164.043 358.53 166.01 360.044 168.129C361.708 170.096 364.205 171.08 367.535 171.08H369.351V173.35H323.724V171.08H325.767C329.399 171.08 332.955 170.02 336.436 167.902C339.916 165.632 342.792 162.302 345.062 157.914L401.358 23.0755C393.186 11.4229 383.046 5.59654 370.94 5.59654C365.492 5.59654 359.665 6.73154 353.461 9.00154L352.78 6.73154ZM377.069 109.563H434.5L416.567 56.6715C413.086 46.5322 409.908 38.5872 407.033 32.8365L377.069 109.563Z" fill="black"/>
</svg>
